<svg width="252" height="424" viewBox="0 0 252 424" fill="none" xmlns="http://www.w3.org/2000/svg"><path d="M238.304 377H24.652L0 424h252l-13.696-47z" fill="#E7F5FF"/><path d="M92.205 185.971l9.835-1.788 10.282 15.647-.447 2.682-3.129-1.341-8.941 1.341-2.235-3.576-2.682-4.918-1.789-4.023-.894-4.024zm45.151-42.469l1.341 4.471.448 2.682-4.024 10.729-8.941-1.788-4.917-1.788-6.259-3.13-3.129-.447v-4.023l4.47-6.706 9.835-.447 7.153-.447 4.023.894zM134.674 9.388l11.177 12.07 1.341 2.235h1.341l1.341.894-.447 2.236-2.235 3.129v3.576l.447 8.047 1.341 6.706.894 4.917 1.788 3.13-8.941 7.6-4.917 7.6-3.577 4.023v-9.835l-6.258-7.6v-9.388l.447-4.918-1.788-4.47-2.683-1.341-1.788-1.788-.894-1.789-.447-4.023-.447-7.153.447-4.023v-6.259l1.341-3.576L126.18 7.6h5.812l2.682 1.788z" fill="#fff"/><path d="M172.363 188.375l-43.06.885v-1.77l-25.526-.458s9.939 14.237 7.83 14.627c-.68.13-4.719-3.547-4.719-3.547l-9.142 2.656s-.618 8.27-2.66 20.074c-2.04 11.805-9.141 47.225-9.141 47.225s-2.647 17.121-2.029 22.73c.272 2.587.192 21.293.767 40.941.68 22.903 2.004 46.983 2.004 46.983l16.96 2.172s1.008-12.9 1.67-25.911c.538-10.524.649-21.127 1.311-25.225 1.472-9.149 13.57-46.636 13.57-46.636s8.845-28.332 9.432-35.42c.588-7.088 2.066-21.839 2.066-21.839l8.505 46.339 1.793 20.954 1.182 12.999 2.066 3.832 3.538 24.797 5.9 24.204 2.839 31.724 9.519.972 10.366-.229-.426-16.324-1.343-16.713-.587-10.331 1.175-9.446-.291-5.906-.884-7.675-.885-72.61-2.066-45.454.266-18.62z" fill="#7A88A7"/><path opacity=".2" d="M101.662 184.173l.872-.174-.111-1.906c11.665-.384 27.214-.496 31.247-.434 13.335.205 29.744-.272 37.049.409.927.054 1.856.054 2.783 0v6.128c-9.216.161-26.905.483-28.637.495-2.264 0-13.286.557-15.55.57-.674 0-22.353-2.551-25.526-2.229l-2.127-2.859zm-9.26 1.974l-.019-.08 7.41-1.511-7.391 1.591zm28.898-18.106c10.601.161 23.145-.105 31.507.117l4.008 1.127 16.279 1.628.062 4.005c-2.239.056-5.047-.427-6.63-.421-2.27 0-31.767.563-34.018.576l-33.4.099c-.767 0-3.853.347-7.645.73v-7.471c11.486-.353 25.99-.446 29.837-.39zm-26.472-12.553c2.344 0 10.28.749 12.612.526 2.331-.223 5.634-.316 9.457-.359l2.665 1.591 2.239 1.021 13.156 3.163 2.889 1.238h-4.553c-2.269 0-31.76-.563-34.018-.569-1.614 0-4.509.495-6.773.408v-7.298a14.1 14.1 0 0 0 2.326.279zm3.767-13.619c2.344 0 10.274.749 12.612.527 7.298-.681 23.714-.205 37.049-.403 6.438-.099 46.388.235 48.417 1.455.097.07.179.158.241.26v7.118c-7.36.236-24.654-1.696-26.472-1.708l-31.668-.093-.687-3.999-1.701-2.036-23.441.099-3.093 5.466a856.042 856.042 0 0 0-6.803-.106c-2.264 0-7.045.985-9.068-.049a1.194 1.194 0 0 1-.253-.204v-7.057c1.818.285 3.754.73 4.867.73zm-.62-16.094c2.344 0 10.273.749 12.611.526 7.299-.681 23.714-.204 37.049-.402 6.315-.099 44.916.223 48.244 1.387v7.459c-7.564.154-24.283-1.709-26.07-1.721l-33.4-.099c-2.264 0-31.761-.564-34.018-.57-1.794 0-5.152.619-7.478.359v-7.341c1.008.214 2.032.349 3.062.402zm-3.653-15.655c.594.115 1.196.182 1.8.198 2.344 0 10.274.749 12.611.527 7.299-.681 23.714-.205 37.049-.403 5.938-.093 40.426.186 47.304 1.189l1.404 7.638c-7.323.254-24.697-1.69-26.522-1.702l-33.399-.099c-2.264 0-31.761-.563-34.018-.569-1.491 0-4.07.414-6.235.42l.006-7.199zm.48-12.82c8.245-.884 36.919-1.138 42.578-1.052 13.336.205 29.745-.272 37.049.409 2.332.217 10.262-.532 12.606-.526a20.59 20.59 0 0 0 3.092-.433l1.293 7.062c-2.134.855-6.643-.068-8.82-.055-2.27 0-31.767.563-34.018.575l-33.4.099c-1.651 0-14.034 1.597-21.122 1.715l.742-7.793zm5.115-15.264c11.56-.563 32.163-.724 36.845-.656 13.335.204 29.744-.272 37.049.408 1.756.161 6.68-.216 10.013-.414l3.013 4.166.989 2.717c-2.072-.05-4.422-.427-5.814-.42-2.27 0-31.767.563-34.018.575l-33.4.099c-1.422 0-10.811 1.188-17.937 1.59l3.26-8.065zm61.476-19.604l-8.041.204 1.936-2.65-.13-1.138 6.235 3.584zm-37.624-5.367l-4.713 3.41s5.492.917 5.288.62c-.204-.297-.575-4.03-.575-4.03zm-14.585 11.99s2.845-.409 3.358-.409h7.633c2.888 0 4.657-.08 6.723-.24l2.437 4.623 1.626-4.822c1.497 0 3.019 0 4.478.05l-.303 6.722s-4.583.31-4.991.31c-.408 0-6.309-.106-8.041 0-1.732.105-7.119-.409-8.851-.62-1.731-.21-9.463.712-9.463.712l5.394-6.326zm40.209-1.139l12.815.118 6.612-.1 5.091 3.059 4.069 3.36c-5.189-.104-9.766.713-14.349.62-4.583-.093-10.892 0-12.519-.1-1.626-.098-6.612-.098-6.612-.098h-.111l5.004-6.859z" fill="#45567C"/><path opacity=".2" d="M137.783 68.238l2.722-.359 2.282 6.92-7.651.162v-2.439l2.647-4.284zm37.673 83.015s8.956 2.755 12.414 4.278a58.869 58.869 0 0 1 6.111 3.163c1.725.916 3.964 1.857 3.964 1.857s-.618 6.314-1.422 7.533c-.804 1.22-2.338 3.157-2.338 3.157s-10.589-8.449-12.117-10.69c-1.528-2.241-6.513-6.722-6.612-7.032a15.868 15.868 0 0 1 0-2.266zm-4.495.409c-3.191-.532 3.662 14.237 3.971 15.475.309 1.238.81 4.686.81 4.686s-10.688-.204-10.787-1.015c-.099-.811.303-3.77-.915-7.428-1.219-3.659-.915-6.809-1.021-7.843-.105-1.034-.402-4.686-.402-4.686s8.956.922 8.344.811zm-16.082-1.015c-.303.303-.711 9.978-.817 11.712-.105 1.733-.167 4.586-.711 5.193-.544.607.309 1.238.309 1.238l-9.469-3.466 1.732-15.178 8.956.501zm-3.438-95.829l2.301 7.199s-4.026 5.757-4.101 5.571c-.074-.186-4.243-8.864-4.243-8.864l6.043-3.906zm-11.226 7.565l4.818 11.377-1.509 2.451-4.459-12.677 1.15-1.151zm-10.508-3.529l-3.668 7.2 3.296 6.976 3.681-10.647-3.309-3.529zm-3.167-2.953l-2.443 3.671-.322-2.482 1.25-4.828 2.82-2.26.124 7.342-1.429-1.443z" fill="#45567C"/><path opacity=".2" d="M153.091 53.58L138.68 63.614l2.251 4.6 13.317-12.53-1.157-2.104zM130.57 69.73l-6.476-10.158.792 3.962 4.447 9.495 1.237-3.299zm60.819 90.864v-6.84c0-2.736.217-7.706-.575-12.894-.792-5.187.754-13.154.179-17.406-.383-2.829.037-13.81.427-22.848l.804 3.225 2.264 15.438 1.855 18.459 1.646 16.608s.686 7.428.414 7.818c-.272.39-1.893 5.906-1.893 5.906l-4.985 4.221c-.414-5.181-.136-9.904-.136-11.687zm-17.094-37.14c-.575-4.246.662-26.834.879-33.68.216-6.847.216-3.962-.075-7.49-.29-3.529-.284-4.247-.358-8.047v-2.192l6.5 5.986c0 .328-.043.588-.043.743 0 1.51.724 10.226.216 16.131-.507 5.906 1.237 60.329 1.33 66.308l-8.084-8.666a66.195 66.195 0 0 0-.563-11.687c-.773-5.181.743-13.153.198-17.406zm-6.371 65.46h-8.127a1.601 1.601 0 0 1-.396-1.021c0-2.476-.217-3.962-.619-9.224-.266-3.256-.253-6.351-.21-8.666h8.226c0 1.059 0 2.068.056 3.046.216 3.887.934 12.46.866 13.896.021.661.089 1.318.204 1.969zm-16.699 0h-8.128a1.606 1.606 0 0 1-.395-1.021c0-2.476-.217-3.962-.619-9.223-.25-3.957-.297-7.924-.142-11.885 0-.403-.279-1.857-.279-2.297l8.542 3.312c-.056 1.894-.074 3.621 0 5.255.217 3.888.934 12.461.866 13.897.005.657.057 1.313.155 1.962z" fill="#45567C"/><path opacity=".2" d="M130.096 101.077c-.334 3.955.501 25.788 1.107 41.591h-8.659c.08-4.611.829-9.848.402-12.999-.575-4.246.662-26.834.878-33.68.217-6.847.217-3.962-.074-7.49-.291-3.529-.284-4.247-.359-8.047-.074-3.801.724-18.007.619-20.886 0 0 4.948-.718 5.616.217.668.935.427 4.246.934 9 .507 4.754-.724 14.695-.724 16.206 0 1.51.767 10.183.26 16.088zm2.398 85.875c.004.566.052 1.131.143 1.69h-8.282a1.467 1.467 0 0 1-.21-.749c0-2.476-.217-3.962-.619-9.224-.25-3.956-.297-7.923-.142-11.885v-8.133l8.412 1.993c0 5.051-.341 8.932-.149 12.411.198 3.887.915 12.461.847 13.897zm9.02-57.308c-.576-4.246.661-26.834.878-33.68.216-6.846.216-3.962-.074-7.49-.291-3.529-.285-4.247-.359-8.047 0-1.498.08-4.606.21-7.998l1.355 3.8 5.566-8.412c0 .31.056.62.093.941.501 4.754-.723 14.696-.723 16.206 0 1.51.723 10.226.216 16.131-.396 4.655.829 34.046 1.404 49.28h-8.337a49.643 49.643 0 0 0-.384-3.306c-.816-5.2.699-13.172.155-17.425zm16.699 0c-.576-4.247.661-26.834.878-33.68.216-6.847.216-3.962-.074-7.49-.291-3.529-.285-4.247-.359-8.047-.062-3.337.538-14.597.618-19.301l6.303 4.53c.062.948.142 1.982.26 3.096.501 4.754-.724 14.695-.724 16.206 0 1.51.724 10.226.217 16.131-.396 4.698.853 34.609 1.416 49.688h-8.3a49.046 49.046 0 0 0-.415-3.714c-.791-5.194.724-13.167.18-17.419zm-51.955 0c-.575-4.246.662-26.834.879-33.68.216-6.846.216-3.962-.074-7.49-.291-3.529-.285-4.247-.359-8.047 0-1.585.093-4.953.235-8.568l6.667-6.326c.062.978.143 2.05.266 3.207.501 4.754-.723 14.695-.723 16.205 0 1.51.723 10.226.216 16.132-.371 4.376.687 30.622 1.293 46.388l-2.598-.767.551 7.125 2.325 1.145c.062 1.77.099 3.095.105 3.825.075 5.98-.358 10.369-.142 14.237.217 3.869.934 12.461.866 13.897a2.776 2.776 0 0 0 0 .316h-8.344c0-2.117-.247-3.795-.618-8.598-.25-3.957-.297-7.924-.143-11.885v-6.815c0-2.736.217-7.707-.575-12.894-.791-5.188.718-13.154.173-17.407zM94.05 146.92l.884-21.547L93.5 104.11l1.516-6.71c0 1.287-.075 2.538-.174 3.677-.5 5.911 1.609 51.736 1.677 57.716.068 5.98-.36 10.368-.143 14.237.167 3.033.619 8.926.81 12.052l-4.8.96-.94-12.38 1.046-11.186 1.559-15.556zm102.435 21.14c-2.338 3.157-3.865 4.661-7.156 4.525-3.29-.136-11.807-.421-18.104-1.096-6.296-.675-13.57-1.646-16.867-2.476-3.296-.829-7.947-2.748-11.102-4.116-3.154-1.368-8.319-3.454-8.319-3.454l1.856-5.881s16.867 5.763 24.27 5.763c7.404 0 10.422.959 13.607 1.51 3.186.551 11.789 3.021 14.121 3.294 1.392.167 5.363.619 8.344.959-.198.336-.415.66-.65.972z" fill="#45567C"/><path d="M154.885 95.444l-15.104.897a.311.311 0 0 1-.31-.29.306.306 0 0 1 .078-.225.315.315 0 0 1 .213-.104l15.086-.897a.313.313 0 0 1 .224.077.298.298 0 0 1 .103.214.315.315 0 0 1-.29.328zm-27.827-.297a.308.308 0 0 1-.303.284l-14.386-1.225a.307.307 0 0 1-.271-.214.307.307 0 0 1 .2-.388.303.303 0 0 1 .12-.011l14.362 1.232a.309.309 0 0 1 .278.322zm27.822 4.921l-15.104.749a.305.305 0 0 1-.309-.291.314.314 0 0 1 .29-.328l15.104-.75a.31.31 0 1 1 .019.62zm-28.415-.576a.315.315 0 0 1-.309.279l-14.226-1.35a.306.306 0 0 1-.267-.214.324.324 0 0 1-.011-.12.299.299 0 0 1 .213-.27.297.297 0 0 1 .121-.009l14.226 1.344a.315.315 0 0 1 .253.34zm19.741-72.758a.313.313 0 0 1-.121-.203.314.314 0 0 1 .053-.23 7.48 7.48 0 0 1 .959-1.127 3.926 3.926 0 0 1 1.237-.805.14.14 0 0 1 .179.062.129.129 0 0 1 .012.11.136.136 0 0 1-.074.082 3.488 3.488 0 0 0-1.014.836.173.173 0 0 1 0 .055c.039.173.064.35.074.527.016.173.016.347 0 .52a1.722 1.722 0 0 1-.389 1.002.187.187 0 0 1-.229 0 .183.183 0 0 1-.071-.11.19.19 0 0 1 .021-.131c.144-.24.207-.52.18-.799.006-.136 0-.273-.019-.408-.115.182-.227.367-.334.557a.303.303 0 0 1-.464.062zm-20.027 6.443c-.343.168-.72.25-1.101.242a2.356 2.356 0 0 1-1.893-1.01.237.237 0 0 1-.036-.095.236.236 0 0 1 .005-.102.235.235 0 0 1 .291-.155c.309.093.575.204.847.266a3.24 3.24 0 0 0 1.565.044c.279-.068.553-.15.823-.248h.043a.25.25 0 0 1 .216 0 .242.242 0 0 1 .056.334 2.3 2.3 0 0 1-.816.724zm2.839-12.634a.808.808 0 0 1 1.119.598.81.81 0 0 1-1.565.405.777.777 0 0 1 .446-1.003zm-7.71.929a.748.748 0 1 1 .965.532.787.787 0 0 1-.965-.532zm10.48-2.717a21.5 21.5 0 0 0-3.841 0 .316.316 0 0 1-.105-.62 7.968 7.968 0 0 1 2.047-.315 5.149 5.149 0 0 1 2.097.34.297.297 0 0 1 .185.328.296.296 0 0 1-.129.224.298.298 0 0 1-.254.043z" fill="#45567C"/><path d="M73.62 388.179c3.173-.674 8.603-2.593 8.603-2.593s2.388-2.619 7.837-5.373l.618-.564-4.144-.476a.304.304 0 0 1-.272-.291c-.822-14.906-1.645-29.805-2.158-44.73-.136-3.714-.18-7.471-.26-11.198l-.223-11.197c-.123-7.46-.229-14.931-.16-22.402.037-3.714.092-7.472.302-11.211.044-.934.13-1.857.192-2.81.062-.953.198-1.857.322-2.817.284-1.852.596-3.697.934-5.533 1.336-7.354 2.876-14.659 4.428-21.963l2.394-10.919c.792-3.64 1.484-7.305 2.146-10.969a410.498 410.498 0 0 0 1.856-11.031c.28-1.84.532-3.683.754-5.528.1-.922.21-1.857.266-2.773.037-.464.074-.922.074-1.38v-.681l-.049-.65v-.062a.311.311 0 0 1 .223-.316l1.045-.297a56.03 56.03 0 0 1-2.023-3.225 48.116 48.116 0 0 1-1.855-3.454 32.381 32.381 0 0 1-1.553-3.621 17.241 17.241 0 0 1-.946-3.875.442.442 0 0 1 .043-.204 53.595 53.595 0 0 1-.896-8.536 93.071 93.071 0 0 1-.056-3.875.549.549 0 0 1 0-.508c0-1.473.037-2.944.111-4.414.254-5.855.841-11.686 1.522-17.499l.513-4.333c.155-1.43.254-2.878.347-4.333v-.303l-8.623-7.546a.769.769 0 0 1 .334-1.337l8.629-2.81c.033-4.734-.054-9.469-.26-14.207-.111-2.921-.31-5.806-.464-8.74l-.068-2.229c0-.749.056-1.485.074-2.228l.056-1.114c0-.372.08-.737.117-1.108.093-.737.167-1.474.273-2.21a55.731 55.731 0 0 1 2.152-8.617 60.228 60.228 0 0 1 3.532-8.121 59.453 59.453 0 0 1 4.7-7.49 44.565 44.565 0 0 1 2.784-3.454c.476-.564 1.014-1.077 1.521-1.622.507-.545 1.052-1.028 1.596-1.523a132.95 132.95 0 0 1 6.655-5.744 172.012 172.012 0 0 1 6.866-5.299l1.367-4.735a.306.306 0 0 1 .092-.155l2.66-2.26-.043-2.63-.044-2.538V43.28a2.965 2.965 0 0 0-.092-.57l-.068-.285-.106-.266a6.029 6.029 0 0 0-1.379-1.95 21.859 21.859 0 0 0-1.855-1.64c-.334-.266-.668-.532-.99-.817a6.051 6.051 0 0 1-.94-.966 5.829 5.829 0 0 1-1.015-2.476c-.315-1.745-.241-3.417-.463-5.094-.223-1.678-.322-3.367-.396-5.088a24.76 24.76 0 0 1 .575-5.076 50.039 50.039 0 0 1-.136-2.91 17.016 17.016 0 0 1 .124-3.027 7.654 7.654 0 0 1 1.051-2.717c-.662-.563-2.307-2.123-2.474-3.714a2.221 2.221 0 0 1 .557-1.727 60.67 60.67 0 0 1 4.997-4.878.304.304 0 0 1 .508.192.313.313 0 0 1-.05.21 1.612 1.612 0 0 0 0 1.777c.557.73 2.202.737 4.292.737h2.79c3.092 0 7.707 0 10.038 1.48a10.231 10.231 0 0 1 5.066 8.33 50.228 50.228 0 0 1 .142 3.405c.006.582 0 1.152 0 1.727v1.604c0 .532 0 .922-.037 1.38 0 .353 0 .706-.043 1.059v1.442c0 .087 0 .099.086.074a1.91 1.91 0 0 1 .372-.086c.263-.039.531-.018.785.061.456.177.831.514 1.058.948.064.108.118.222.161.34.036.127.061.258.074.39.009.241-.014.483-.068.718a8.522 8.522 0 0 1-1.07 2.396c-.416.67-.869 1.316-1.355 1.937a54.174 54.174 0 0 0 .111 6.19c.137 2.117.353 4.234.619 6.345.266 2.11.588 4.215.959 6.314.13.706.259 1.405.396 2.11a6.143 6.143 0 0 1 3.012 1.635 9.416 9.416 0 0 1 1.991 3.386c.282.785.513 1.587.693 2.402a.322.322 0 0 1 .186 0 40.137 40.137 0 0 1 5.17 3.039c.415.29.811.619 1.237.916l1.126.972a28.651 28.651 0 0 0 2.363 1.746c1.639 1.095 3.34 2.104 5.047 3.095l2.56 1.522c.427.248.86.539 1.275.824.414.284.822.619 1.2.922a54.88 54.88 0 0 1 8.275 8.666 41.055 41.055 0 0 1 3.334 5.02c.254.434.464.904.693 1.35.229.445.402.947.618 1.417l1.021 2.798c.674 1.857 1.348 3.714 1.911 5.677.286.97.521 1.956.705 2.952.093.502.161 1.009.217 1.517l.148 1.473c.464 3.925 1.045 7.855 1.664 11.761.309 1.956.618 3.912 1.02 5.837.099.477.204.954.322 1.406.118.451.254.996.353 1.491.21.997.364 1.987.501 2.984.265 1.993.439 3.986.525 6.004l.037 1.498c0 .465.044.96.081 1.449.068.978.161 1.962.253 2.946.378 3.95.823 7.887 1.182 11.861l.229 2.958c.099.966.228 1.944.346 2.935.314 2.028.395 4.087.241 6.134a12.492 12.492 0 0 1-.266 1.572l-.346 1.461a17.704 17.704 0 0 1-.977 2.978 9.355 9.355 0 0 1-1.856 2.692l-.618.564c-.217.173-.452.321-.675.476a9.023 9.023 0 0 1-1.422.799 15.192 15.192 0 0 1-6.148 1.151h-.773l-.761-.043-1.528-.093-2.969-.291-6.915-.724.452 16.199a.555.555 0 0 1-.337.524.56.56 0 0 1-.214.046l-1.577.031c.099 3.132.248 6.276.384 9.415l.618 12.869 1.095 25.819c.173 4.296.352 8.585.489 12.888.074 2.148.117 4.296.167 6.45v3.237l-.056 1.647-.074 1.591c-.155 4.265-.161 8.567-.192 12.856v12.882c.043 8.586.13 17.177.309 25.757.105 4.29.192 8.586.421 12.863.062 1.065.123 2.142.229 3.182l.099.767.049.384.08.409c.111.541.192 1.089.242 1.64.16 2.166.143 4.342-.05 6.506-2.01 17.115 2.852 34.181 1.46 51.377a.317.317 0 0 1-.018.118.298.298 0 0 1-.158.17.286.286 0 0 1-.115.028h-.847v4.005s-.167 3.925-8.041 4.011c0 0-4.428 6.605-20.8 4.179 0 0-.582-1.925 2.672-4.179 3.253-2.253 9.123-4.952 10.31-8.486a44.612 44.612 0 0 1-3.216-.489.294.294 0 0 1-.173-.096.302.302 0 0 1-.075-.183c-.556-6.939-1.138-13.872-1.812-20.792-.359-3.448-.674-6.939-1.237-10.325-.662-3.374-1.577-6.748-2.412-10.115l-2.536-10.133c-.81-3.392-1.633-6.772-2.239-10.232-.606-3.461-.965-6.927-1.41-10.369a155.234 155.234 0 0 0-.73-5.144 46.948 46.948 0 0 0-.482-2.525 13.603 13.603 0 0 0-.706-2.371l-.111-.273c-.043-.08-.093-.148-.13-.222l-.13-.223a4.677 4.677 0 0 1-.247-.415 7.981 7.981 0 0 1-.421-1.387 33.985 33.985 0 0 1-.445-2.63c-.235-1.746-.383-3.485-.532-5.231-.284-3.479-.501-6.951-.724-10.424-.222-3.473-.42-6.945-.729-10.393a71.319 71.319 0 0 0-.266-2.569c-.105-.848-.266-1.671-.415-2.532l-.958-5.132c-1.281-6.809-2.586-13.673-3.773-20.538-.291-1.721-.582-3.442-.848-5.169-.266-1.727-.525-3.448-.68-5.231-.08-.934-.08-1.727-.173-2.581-.093-.854-.18-1.677-.328-2.513a42.915 42.915 0 0 0-.748-3.454l-.78 8.214-.909 9.861c-.186 1.647-.303 3.275-.538 4.952-.099.83-.235 1.653-.377 2.476-.143.823-.297 1.634-.458 2.445-.65 3.256-1.447 6.469-2.332 9.657-1.763 6.375-3.779 12.665-5.962 18.904-2.184 6.24-4.633 12.38-6.476 18.639a82.027 82.027 0 0 0-1.237 4.747 49.574 49.574 0 0 1-1.441 4.804 83.716 83.716 0 0 0-2.975 9.341 35.74 35.74 0 0 0-.755 4.791c-.155 1.603-.204 3.281-.309 4.915l-.551 9.873-1.132 19.746-.303 4.953-.439 4.952s-.884 9.854-.884 9.904a.308.308 0 0 1-.34.272l-1.912-.217-.08 1.938.371-.087.062 8.004-7.268.087s-1.657-3.343-7.842.563c0 0-12.37 1.083-15.952-1.003-.025 0-.612-1.665 2.56-2.34zm23.175-175.984a324.194 324.194 0 0 1-1.719 11.074 278.418 278.418 0 0 1-2.066 11.018l-2.288 10.957c-1.528 7.298-3.043 14.609-4.33 21.938-.334 1.857-.618 3.67-.915 5.503-.118.922-.235 1.826-.316 2.748-.08.922-.16 1.857-.204 2.773-.216 3.714-.29 7.428-.34 11.142-.087 7.428 0 14.919.093 22.378l.185 11.191c.068 3.714.093 7.428.217 11.186.229 7.428.563 14.906.86 22.365l.866 19.684 13.434 1.579c.164-6.351.358-12.696.581-19.035.136-3.256.229-6.5.482-9.768.254-3.268.891-6.462 1.237-9.681a59.48 59.48 0 0 0 .433-9.675c-.105-3.25-.222-6.525 0-9.793a53.613 53.613 0 0 1 1.442-9.712c.377-1.597.853-3.17 1.385-4.717a291.174 291.174 0 0 0 1.546-4.618c1.986-6.19 3.773-12.436 5.536-18.694 1.763-6.258 3.445-12.535 5.109-18.818.42-1.585.822-3.126 1.144-4.717l.971-4.772 1.856-9.577 3.562-19.189v-.043a.722.722 0 0 1 0-.093.543.543 0 0 1 .161-.223 75.323 75.323 0 0 1-1.15-9.539 190.753 190.753 0 0 1-.421-10.114 344.932 344.932 0 0 1-.031-10.121c.033-2.212.083-4.42.149-6.624l-19.644-.879c.476.756.946 1.517 1.422 2.285a198.524 198.524 0 0 1 3.365 5.688 87.2 87.2 0 0 1 .915 1.672l6.328-1.796a.323.323 0 0 1 .393.226.32.32 0 0 1-.226.393l-6.185 1.758c.117.23.247.446.365.675.185.353.358.712.531 1.071l6.155-1.677a.324.324 0 0 1 .242.033.319.319 0 0 1 .155.32.325.325 0 0 1-.124.211.321.321 0 0 1-.113.055l-6.036 1.652c.232.472.416.965.55 1.474a.99.99 0 0 1-.055.65.627.627 0 0 1-.186.204.705.705 0 0 1-.26.093h-.198l-.154-.044a3.092 3.092 0 0 1-.804-.476 14.512 14.512 0 0 1-1.237-1.127l-.093-.093-11.591 3.163a.676.676 0 0 0 0 .112c-.05.941-.148 1.857-.235 2.804-.266 1.838-.495 3.689-.748 5.54zm37.952-51.136l3.798-11.303a23.445 23.445 0 0 0-.618-3.51 8.374 8.374 0 0 0-.619-1.641 2.357 2.357 0 0 0-.996-1.132 2.867 2.867 0 0 0-.773-.143 25.763 25.763 0 0 0-.897-.074l-1.855-.081-2.375-.074 4.28 3.318a.729.729 0 0 1 .173.198v.037c.041.072.07.149.087.229a.768.768 0 0 1-.421.824c-1.194.396-2.827.928-2.907.928l-13.069-3.869c-2.845-1.374-1.584 2.322 1.472 3.9a64.112 64.112 0 0 0 5.035 2.309l-2.06.706c-3.21-1.145-7.54-3.151-8.22-3.436-1.237-.526-.922 2.049.655 3.002a85.47 85.47 0 0 0 3.347 1.857l-1.077.366a52.787 52.787 0 0 0-1.855-.502c-1.144-.266-2.567-.384-2.895 0a.31.31 0 0 1 .241.217l.031.031.099.08c.068.062.161.118.242.18l.538.334c.371.217.754.427 1.138.619.761.415 1.54.817 2.319 1.207 1.546.78 3.093 1.554 4.658 2.303l6.383 1.578c2.049.508 4.096 1.022 6.141 1.542zm.588.185l10.812 4.272.674.266 3.711-14.937a897.384 897.384 0 0 1-11.443-.73l-3.754 11.129zm-6.933-.928l-6.452-1.535a.295.295 0 0 1-.086-.031 153.952 153.952 0 0 1-4.689-2.383 84.02 84.02 0 0 1-2.313-1.276l-.655-.408-4.175 1.43a.771.771 0 0 1-.743-.143l-7.985-6.982c-.043 3.213 0 6.431.106 9.644.123 4.222.34 8.437.618 12.653.278 4.215.532 8.431.885 12.64a.308.308 0 0 1-.062.205.309.309 0 0 1-.18.117h-.08a71.809 71.809 0 0 1 1.627 2.426l24.592-.074.123-3.714.099-3.039.136-3.04.52-12.114.186-4.048-1.472-.328zm-30.697 40.898l.05.47v1.374l11.077-3.002a49.689 49.689 0 0 1-1.448-1.566l-9.68 2.724zm-4.095-11.365a32.937 32.937 0 0 0 1.478 3.559 53.01 53.01 0 0 0 1.8 3.429 54.133 54.133 0 0 0 2.023 3.306.135.135 0 0 1 .03.068l8.153-2.315a.415.415 0 0 1 .08-.13.316.316 0 0 1 .22-.092.305.305 0 0 1 .219.092c.73.811 1.491 1.603 2.276 2.352.393.372.806.721 1.237 1.046.163.127.339.235.526.322a.042.042 0 0 0 0-.031 8.72 8.72 0 0 0-.587-1.442 32 32 0 0 0-.749-1.449c-.526-.959-1.07-1.906-1.626-2.853a182.515 182.515 0 0 0-3.446-5.602c-1.181-1.857-2.375-3.714-3.649-5.429a.619.619 0 0 1-.08-.173l-8.66 1.894c.133 1.174.386 2.332.755 3.454v-.006zm-1.651-12.38c.01 2.798.23 5.591.655 8.356l9.637-2.104c-.347-3.498-.619-6.995-.903-10.524l-9.39.731v3.541zm2.016-26.116c-.76 5.787-1.416 11.581-1.763 17.394a128.796 128.796 0 0 0-.198 3.992l9.278-.154a391.163 391.163 0 0 1-.779-13.91c-.124-3.491-.192-6.988-.142-10.486l-5.505-4.815c-.087 1.207-.173 2.42-.328 3.633l-.563 4.346zm29.812-92.128a20.81 20.81 0 0 0-.296-1.64 167.243 167.243 0 0 0-12.853 11.08 42.38 42.38 0 0 0-5.69 6.494 57.725 57.725 0 0 0-4.497 7.428 65.723 65.723 0 0 0-3.377 7.966 55.14 55.14 0 0 0-2.023 8.345c-.093.712-.16 1.43-.247 2.142-.037.359-.093.711-.111 1.07l-.044 1.077c0 .719-.086 1.43-.062 2.148l.075 2.148c.16 2.897.395 5.838.488 8.759.178 4.602.246 9.203.204 13.804l6.421-2.092 1.632-19.926 2.122-25.268a.317.317 0 0 1 .334-.285.308.308 0 0 1 .284.329l-1.905 25.286-1.521 19.542 5.183-1.69a.774.774 0 0 1 .619.149l21.029 16.323 1.132-.037c0-.669.049-1.337.062-1.999.402-8.085.086-16.181.099-24.303 0-2.03 0-4.06.031-6.097.03-2.037.16-4.073.296-6.103.285-4.049.65-8.079 1.064-12.114.011-2.269.256-4.53.73-6.748.415-2.216.946-4.407 1.33-6.586.096-.534.162-1.074.198-1.616v-1.665c.037-1.126.093-2.253.148-3.373.124-2.204.26-4.403.409-6.599a6.49 6.49 0 0 0-.774-1.139 13.135 13.135 0 0 0-1.051-1.157l-3.495 10.77a.558.558 0 0 1-.482.371.535.535 0 0 1-.52-.303c-1.193-2.674-2.344-5.354-3.395-8.09a48.653 48.653 0 0 1-.755-2.074 14.674 14.674 0 0 1-.618-2.166c-.075-.415-.068-.743-.112-1.108-.043-.365-.006-.737-.055-1.084l-.007.031zm1.571-6.89l-1.348 4.668c.186.7.328 1.387.445 2.086.062.366.118.73.161 1.096.044.365.068.761.142 1.065.156.689.363 1.365.619 2.024.247.68.52 1.355.798 2.024a156.283 156.283 0 0 0 3.031 6.772l3.575-9.669-1.8-1.709-4.689-4.413a.29.29 0 0 1-.015-.406.286.286 0 0 1 .405-.015l.977.873-.099-6.27-2.202 1.875zm23.182-3.175a138.063 138.063 0 0 1-1.082-6.332 110.298 110.298 0 0 1-.749-6.388 54.78 54.78 0 0 1-.216-6.457.523.523 0 0 1 .136-.34 19.962 19.962 0 0 0 1.553-1.857 7.697 7.697 0 0 0 1.144-2.074 1.21 1.21 0 0 0 0-.984 1.441 1.441 0 0 0-.712-.743c-.618-.26-1.484.13-2.084.62a.197.197 0 0 1-.253-.298s.092-.074.105-.086l.117-.093.235-.168c.05 0 .167-.068.186-.13a.616.616 0 0 0 0-.148v-.285c0-.05 0-.062-.05-.037a5.399 5.399 0 0 1-.377.167c-.308.119-.635.18-.965.18-.278 0-.554-.046-.816-.137a10.724 10.724 0 0 1-7.157-6.394c-.729-1.745-3.327-7.508-5.956-8.326a11.681 11.681 0 0 0-4.039-.427c-1.527.112-4.441 1.746-5.127 2.204a6.77 6.77 0 0 0-.984 2.612c-.123.95-.162 1.91-.117 2.866 0 .62.062 1.238.105 1.857a4.354 4.354 0 0 1 1.064 0 2.41 2.41 0 0 1 1.546.62c.223.244.355.56.371.89a1.45 1.45 0 0 1 0 .446c0 .155-.043.273-.062.384l-.272 1.387a363.744 363.744 0 0 1-1.076 5.144l1.367-.124a.217.217 0 0 1 .223.167.2.2 0 0 1-.161.241l-1.769.366h-.099a.297.297 0 0 1-.254-.335c.31-1.869.635-3.738.978-5.608l.21-1.454c.093-.465.099-.75-.093-.966a1.911 1.911 0 0 0-1.02-.434 7.342 7.342 0 0 0-.916-.068c0 .118 0 .236.031.353a.77.77 0 0 1 0 .118 24.08 24.08 0 0 0-.618 4.952c.068 1.665.222 3.361.371 5.039.148 1.677.142 3.429.426 5.026.118.786.416 1.534.873 2.185a9.512 9.512 0 0 0 1.614 1.517c1.28.947 5.053.526 7.676.254a15.545 15.545 0 0 1 3.742-.161.9.9 0 0 1 .723.557c.235.724-.618 1.74-2.307 3.77a135.077 135.077 0 0 0-2.987 3.713c-1.918 2.545-2.783 4.049-2.814 5.113l.068 6.104a.289.289 0 0 1 0 .093l3.21 2.91 2.4 2.153c.405.377.789.776 1.15 1.195.388.435.723.915.996 1.43a.346.346 0 0 1 .031.18v-.007a486.372 486.372 0 0 0-.371 6.71.54.54 0 0 1 0 .08l2.573-5.471a10.88 10.88 0 0 1-.205-2.037 2.49 2.49 0 0 1 .087-.619.916.916 0 0 1 .149-.29.287.287 0 0 1 .117-.168l11.616-7.936c-.625-2.03-1.058-4.122-1.479-6.22h-.006zm5.567 7.212a8.932 8.932 0 0 0-1.856-3.17 5.484 5.484 0 0 0-2.43-1.38 45.54 45.54 0 0 0 .754 3.225l.619-.44a.19.19 0 0 1 .269.047.193.193 0 0 1 .032.144.18.18 0 0 1-.027.07.183.183 0 0 1-.052.055l-.903.62-.043.03-11.207 7.905c.088.081.167.173.235.272a2.2 2.2 0 0 1 .29.527c.532 1.3.984 2.587 1.454 3.887l2.356 6.71 11.381-14.992a19.21 19.21 0 0 0-.891-3.51h.019zm26.874 115.043l2.963.254 1.447.074.724.031h.711c1.873.044 3.734-.3 5.468-1.009a8.075 8.075 0 0 0 1.169-.656c.173-.13.371-.242.538-.384l.482-.446a7.502 7.502 0 0 0 1.491-2.191c.371-.863.663-1.758.872-2.674l.34-1.436c.105-.449.181-.904.229-1.362a26.926 26.926 0 0 0-.204-5.745c-.111-.978-.241-1.968-.328-2.983l-.21-2.978-1.076-11.854c-.081-.996-.161-1.987-.223-2.99 0-.501-.062-.996-.068-1.522v-1.474a66.233 66.233 0 0 0-.452-5.868 43.286 43.286 0 0 0-.451-2.891 28.427 28.427 0 0 0-.315-1.411 34.65 34.65 0 0 1-.328-1.498c-.371-1.974-.674-3.937-.971-5.905-.576-3.937-1.12-7.868-1.547-11.836l-.142-1.491a20.819 20.819 0 0 0-.185-1.43 27.085 27.085 0 0 0-.656-2.842c-.532-1.857-1.181-3.757-1.856-5.626l-.989-2.805c-.18-.451-.347-.897-.545-1.337-.197-.44-.408-.879-.618-1.3a40.38 40.38 0 0 0-3.21-4.92 53.844 53.844 0 0 0-8.041-8.6c-.365-.328-.767-.619-1.15-.904a11.606 11.606 0 0 0-1.237-.798l-2.542-1.541c-1.701-1.034-3.402-2.062-5.054-3.188a30.882 30.882 0 0 1-2.406-1.814l-1.113-.984a17.07 17.07 0 0 0-1.157-.892 39.213 39.213 0 0 0-4.824-2.909c.043.223.087.446.118.669a.307.307 0 0 1-.05.216l-11.671 16.367a.618.618 0 0 1-.316.223.618.618 0 0 1-.76-.396l-2.474-7.887c-.421-1.306-.835-2.63-1.293-3.893a2.345 2.345 0 0 0-.192-.39.602.602 0 0 0-.093-.118 2.029 2.029 0 0 0-.062.372c-.015.665.031 1.33.137 1.987a.284.284 0 0 1-.031.167l-3.235 6.896c0 .557-.05 1.12-.062 1.67v1.697a17.271 17.271 0 0 1-.204 1.727c-.377 2.24-.891 4.42-1.293 6.611a32.2 32.2 0 0 0-.668 6.568v.074c-.39 4.03-.73 8.047-.983 12.102-.124 2.018-.229 4.042-.26 6.047-.031 2.006 0 4.043 0 6.073.037 8.09.408 16.212.062 24.346 0 .619-.037 1.293-.056 1.937h.718c.618 0 1.237.012 1.855.037l.94.062c.353.016.701.085 1.033.204a3.059 3.059 0 0 1 1.429 1.554c.273.584.48 1.197.618 1.826.255 1.133.396 2.288.421 3.448 7.391.111 14.776.34 22.161.582l1.404.056c.477 0 .959 0 1.435.055.953.056 1.899.155 2.833.26 1.856.211 3.711.502 5.536.619.432.028.866.028 1.299 0 .287-.001.568-.077.816-.223a2.04 2.04 0 0 0-.155-.619c-.142-.464-.259-.916-.383-1.374a248.99 248.99 0 0 1-1.385-5.472 439.091 439.091 0 0 1-2.512-10.975c-.785-3.671-1.354-7.428-1.979-11.099-.625-3.67-1.237-7.384-1.905-11.068a179.322 179.322 0 0 0-1.045-5.515c-.192-.91-.39-1.826-.619-2.73a29.737 29.737 0 0 0-.352-1.337c-.068-.216-.13-.439-.217-.619a1.807 1.807 0 0 0-.123-.29.623.623 0 0 0-.062-.125.316.316 0 0 1-.05-.074l-.074-.167a.279.279 0 0 1 .458-.316c.062.062.123.13.179.198.038.058.073.118.105.18.063.112.119.227.167.347.105.229.173.458.26.68.148.459.291.91.421 1.362.259.91.476 1.826.699 2.743.432 1.857.828 3.664 1.237 5.496.773 3.677 1.453 7.367 2.14 11.05.686 3.683 1.311 7.372 2.127 11.018a476.229 476.229 0 0 0 2.567 10.919c.452 1.82.909 3.634 1.404 5.429.124.446.248.898.384 1.331l.099.322a3.7 3.7 0 0 1 .105.489 1.539 1.539 0 0 1-.384 1.238 2.036 2.036 0 0 1-.946.538 4.316 4.316 0 0 1-.829.149c-.502.034-1.007.034-1.509 0-1.936-.124-3.779-.433-5.629-.65a53.523 53.523 0 0 0-2.758-.285c-.458-.031-.909-.049-1.367-.068l-1.404-.062c-3.179-.169-6.358-.344-9.537-.526l-4.33 15.104 4.249 1.69c.916.282 1.85.501 2.796.656.965.173 1.942.328 2.919.47 7.806 1.046 15.704 1.839 23.59 2.551zm-7.756 16.577l-.618-15.804c-5.146-.563-10.286-1.2-15.414-2.048a84.99 84.99 0 0 1-2.944-.539 22.541 22.541 0 0 1-2.981-.774c-1.856-.767-3.656-1.553-5.48-2.346l-10.904-4.754a319.726 319.726 0 0 1-3.439-.749l-.149 3.77-.482 12.157-.118 3.04-.08 3.039-.136 5.187 42.745-.179zm3.748 190.778l-.519-6.419-.582-6.419-.581-6.413-.285-3.212a62.825 62.825 0 0 1-.117-3.238c0-2.166-.031-4.283-.081-6.456.05-2.191.316-4.333.452-6.45a38.997 38.997 0 0 0 0-6.357c-.05-.52-.128-1.037-.235-1.548-.111-.489-.161-1.089-.247-1.628-.118-1.096-.18-2.16-.248-3.237-.247-4.333-.352-8.598-.482-12.894-.215-8.592-.357-17.184-.427-25.776l-.068-12.888c0-4.302 0-8.591.13-12.906l.074-1.628.043-1.578v-3.201a551.799 551.799 0 0 0-.191-6.425c-.155-4.29-.353-8.579-.551-12.869l-1.311-25.732-.619-12.87c-.154-3.157-.309-6.301-.426-9.464l-5.171.093.031 22.129c0 8.468.519 16.918.971 25.38l1.336 25.379.618 12.696.266 6.357c0 1.065.087 2.111.087 3.188s0 2.105.031 3.169c.21 8.462.581 16.936.934 25.38l.563 12.702c.086 2.117.21 4.228.284 6.351l.167 6.357c.05 2.117.105 4.234.192 6.345a89.75 89.75 0 0 0 .185 3.163c.087 1.052.198 2.111.266 3.169.279 4.234.452 8.468.619 12.709.078 2.117.144 4.236.198 6.357v3.175l.111 3.17c.173 4.054.384 8.109.619 12.163l1.67.062 1.237.05h.977a29.695 29.695 0 0 1 .161-3.64 34.306 34.306 0 0 0-.081-6.296zm-5.226 14.591c1.639.031 2.245-.904 2.938-1.362-2.474.049-4.936.035-7.385-.044h-.693c1.645 1.071 2.926 1.362 5.14 1.406zm-14.022-2.935c3.182.536 6.398.838 9.624.904 3.192.105 6.402.093 9.593 0 0-.446-.043-.897-.061-1.343h-1.052l-1.237-.062-2.425-.118c-1.62-.086-3.241-.142-4.861-.247a637.91 637.91 0 0 1-9.698-.619l.117 1.485zm-53.631-19.523l.346-4.952.217-4.952.909-19.716.452-9.904c.092-1.653.123-3.281.259-4.952.143-1.666.399-3.321.767-4.952a85.537 85.537 0 0 1 2.981-9.502c.532-1.547 1.021-3.095 1.392-4.667.371-1.572.779-3.231 1.237-4.822 1.856-6.382 4.262-12.535 6.464-18.731 2.202-6.197 4.243-12.461 6.03-18.781.878-3.163 1.713-6.345 2.419-9.545.167-.799.346-1.597.488-2.402.142-.805.297-1.61.408-2.414.254-1.61.409-3.262.619-4.897l1.194-9.811 1.237-9.811a.316.316 0 0 1 .392-.26.308.308 0 0 1 .189.148 18.278 18.278 0 0 1 1.992 4.952c.217.869.382 1.749.494 2.637.112.873.149 1.827.211 2.631.142 1.678.396 3.405.655 5.113.26 1.709.545 3.423.835 5.138 1.163 6.852 2.474 13.686 3.711 20.526l.941 5.138c.148.854.315 1.727.42 2.619.105.891.198 1.751.272 2.624.303 3.485.495 6.958.712 10.43.216 3.473.414 6.946.692 10.4.143 1.727.297 3.454.514 5.162.105.848.235 1.696.402 2.507.073.381.181.754.321 1.115a.592.592 0 0 1 .081.148l.21.341c.062.111.136.229.192.34l.142.334c.336.85.593 1.728.767 2.625.186.867.34 1.733.476 2.606.272 1.733.495 3.466.705 5.193.421 3.455.78 6.921 1.33 10.326.551 3.404 1.373 6.809 2.159 10.17l2.474 10.133c.81 3.392 1.67 6.753 2.313 10.214.526 3.491.792 6.945 1.107 10.418.52 6.134.971 12.275 1.392 18.409h.062c3.241 0 6.488.105 9.729.198 1.62.037 3.241.118 4.861.173h.099c-.222-4.036-.445-8.047-.618-12.107l-.124-3.182v-3.182c-.049-2.111-.13-4.228-.21-6.345-.173-4.234-.353-8.468-.619-12.683-.074-1.059-.179-2.086-.278-3.163-.099-1.077-.142-2.124-.192-3.188-.093-2.117-.148-4.241-.204-6.358l-.179-6.351c-.081-2.104-.211-4.227-.303-6.344l-.619-12.696c-.365-8.468-.761-16.93-.989-25.417-.031-1.052 0-2.142-.038-3.188-.037-1.046-.061-2.104-.092-3.157l-.279-6.344-.618-12.696-1.392-25.38c-.47-8.455-.989-16.93-1.027-25.416l-.043-7.329-23.503-4.265a.309.309 0 0 1-.248-.359.314.314 0 0 1 .359-.254l23.374 4.246v-2.234l-23.467-4.005a.313.313 0 0 1-.256-.363.311.311 0 0 1 .361-.256l23.362 3.986-.068-11.303-34.86.619a.853.853 0 0 1-.853-.854v-.607l-3.019-.136a456.607 456.607 0 0 0-.297 6.592c-.115 3.36-.181 6.721-.197 10.084 0 3.361 0 6.722.185 10.071.11 3.178.42 6.345.928 9.484l4.138 1.535a.315.315 0 0 1 .193.152.31.31 0 0 1 .029.244.32.32 0 0 1-.395.223l-3.712-.824-3.525 18.571-1.893 9.576-.989 4.785c-.334 1.597-.755 3.206-1.176 4.76a1371.039 1371.039 0 0 1-5.189 18.818c-1.781 6.258-3.6 12.51-5.616 18.706-.501 1.548-1.051 3.095-1.571 4.624-.519 1.529-1.002 3.095-1.379 4.637a52.414 52.414 0 0 0-1.454 9.551c-.222 3.225-.117 6.462 0 9.718a59.59 59.59 0 0 1-.482 9.793c-.384 3.238-.953 6.45-1.293 9.663-.34 3.212-.371 6.475-.519 9.718-.256 6.355-.475 12.715-.656 19.078l2.746.322.495-7.267zm-.68 9.564l.099-1.393-16.7-2.284.08 1.789 16.521 1.888zm-5.134 2.748a15.8 15.8 0 0 0 2.771-.248l.086-2.141-9.617-1.096-1.052.935c1.49 1.529 4.429 2.562 7.812 2.562v-.012z" fill="#45567C"/></svg>