<svg width="256" height="424" viewBox="0 0 256 424" fill="none" xmlns="http://www.w3.org/2000/svg"><g clip-path="url(#a)"><path d="M240.304 377.489H26.652L2 424.489h252l-13.696-47z" fill="#E7F5FF"/><path d="M183.329 84.596l8.374 2.645-.881 15.866-.882 16.308-1.322 11.459-1.763 12.782-2.644 8.374-3.086 4.407-3.526 1.322-3.966-1.322-5.73-4.407-6.17-5.289-6.611-6.611-8.374-7.052-1.323 6.17-.44 5.289.44 11.459-3.966.441-8.815.441-11.9.44-7.052-.44-8.815-.882-.881-7.052-.882-6.17-3.085-7.933-2.644-7.493-1.764-7.052-3.525 3.085-7.493 5.289-12.781 11.019 1.763 1.763 13.222 13.663 11.018 11.9-4.407 4.848-12.34-8.815-11.9-8.815-7.934-7.052-3.526-3.966-1.322-3.526.881-3.085 6.611-9.256 7.934-8.374 10.577-9.256 4.408-5.288 9.696-11.9 3.085-2.204 1.763 2.204 7.052 4.848 5.73.44 4.848-1.763 1.763-6.17 3.966 6.17 8.815 14.986v-10.578l-.881-11.9 6.17 3.526 7.052 6.61 3.967 6.171 11.9 16.308 9.255 12.781 1.763-11.018 2.204-9.697 1.763-5.289 6.611-23.359z" fill="#fff"/><path d="M145.6 155.791s-8.257.97-12.745 1.092c-4.488.122-16.391.245-19.306-.122-2.914-.366-8.616-.97-8.616-.97v4.882l-2.671 4.882 1.701 3.4s-2.183 0-2.914-.849l-4.373 6.805-5.341 19.077-.61 25.022.97 37.056-2.183 31.124 74.607-1.098s-10.744-100.513-14.147-112.072c-3.403-11.559-4.732-13.249-4.732-13.249l.36-4.98z" fill="#DDC5FA"/><path opacity=".74" d="M118.385 286.762l-22.44.409.134 25.437s1.085-2.978 3.244-3.924c2.158-.946 3.11-1.355 4.055-.409.945.946.274 3.521-.537 4.601s-3.92 8.117-4.732 10.009c-.81 1.892-2.03 8.123-2.03 8.123l.542 18.802-.408 23.679 9.33-.811 4.329-25.437 2.567-17.997.677-17.698s.268-6.628.811-8.928c.543-2.301 3.378-13.933 3.378-13.933l1.08-1.923zm41.637-.536l-22.709.537 11.489 44.245 2.299-4.455s1.896.812 2.567 3.924c0 0 5.409.678 6.494 4.467 1.085 3.79-.274 9.197-1.896 10.277-1.622 1.081-4.598 3.522-4.598 3.522l5.683 18.131s1.22 4.596.945 7.439c-.274 2.844 1.622-.811 1.622-.811l7.434-.134-9.33-87.142zM97.53 167.051l-4.348 4.754 1.75 6.102 5.799-9.91 1.799 1.22 1.427-.293s-.378-2.16-1.22-2.862c-.841-.702-1.902-1.221-2.5-.696-.597.525-1.5 1.447-1.5 1.447l-1.207.238z" fill="#7A88A7"/><path d="M140.014 47.29l-18.788-1.081-5.543 38.692 6.098 6.359 10.409 17.185 1.085 2.441-.408-24.759s.945-10.686 3.11-12.584c2.165-1.898 4.878-5.547 4.878-8.25 0-2.704.409-13.665.409-13.665l-1.25-4.339z" fill="#8D95A6"/><path opacity=".74" d="M196.622 70.944l-3.659 1.434-2.439 1.44-1.006-1.391-2.244 4.162-2.104 4.595-.908 3.918 6.933 2.057.714-2.484 4.018-2.868s.14 1.098.427 1.098a8.676 8.676 0 0 0 1.579-.671s1.22-.812.909-1.337a6.855 6.855 0 0 0-1.531-1.391s1.384-.86.909-1.624a8.007 8.007 0 0 0-2.055-1.72s.335-.574-.384-1.008a11.11 11.11 0 0 0-2.153-.811 5.92 5.92 0 0 0 2.012-.958 3.397 3.397 0 0 0 1.22-1.77l-.238-.671z" fill="#7A88A7"/><path opacity=".55" d="M153.669 330.465a11.41 11.41 0 0 0-2.567-3.924l-2.299 4.467-4.11 2.899-.884 1.105-5.751.885 2.763 3.1-1.323 3.869-1.44 2.215-5.86 1.66s-10.616 1.99-13.598 1.77c-2.982-.22-8.622-.11-8.622-.11l-4.976 25.669.549 5.425 8.073 10.735s2.214 1.434 3.537.769c1.323-.666 2.653-1.88 1.439-3.204-1.213-1.325-3.207-2.881-3.537-4.651-.329-1.769-1.219-6.969-1.219-6.969l19.019 1.44v7.635l-.11 5.199s.659 3.87 1.988 4.315c1.33.446 2.763 1.88 3.757 1.105.994-.775 2.103-1.88 1-2.655a4.992 4.992 0 0 1-1.549-1.66l.664-10.179 4.312 13.169s1.103 3.979 2.097 4.535c.994.555 3.098 1.66 3.982 1.104.884-.555 2.653-1.434 1.659-2.654-.994-1.221-2.323-2.875-2.323-2.875s-1.44-12.724-1.44-14.274c.054-2.055.314-4.1.775-6.103.445-1.776 3.872-10.07 3.872-10.07l.665-3.21s-.775-6.42-.226-8.544c.549-2.123.555-3.1 2.439-4.65 1.884-1.55 5.641-3.759 5.641-5.755 0-1.995 1.305-5.584.103-7.158a29.297 29.297 0 0 0-3.201-3.351l-3.299-1.074zm-56.266-19.779c1.176 1.031 2.951 2.728 4.939 3.173l-4.055 8.037-2.135 7.708.44 31.204-.44 11.43s-1.774-4.571-2.067-7.152c-.292-2.582-.61-9.368-1.177-12.468-.567-3.1-2.213-8.483-2.439-10.698-.225-2.216-.664-9.515-.22-12.023.446-2.508 1.696-9.886 2.653-11.729.958-1.843 4.5-7.482 4.5-7.482z" fill="#F44F7F"/><path d="M154.839 333.419a9.272 9.272 0 0 1-1.89 2.068.155.155 0 0 0-.044.048.16.16 0 0 0-.02.126.154.154 0 0 0 .027.058.183.183 0 0 0 .22.049c.425-.26.82-.567 1.177-.915.356-.336.694-.69 1.012-1.062a.31.31 0 0 0-.133-.493.298.298 0 0 0-.324.09l-.025.031zm-6.8 5.394c-.378.287-.769.562-1.165.806a6.257 6.257 0 0 1-1.219.61.303.303 0 0 0-.177.149.294.294 0 0 0-.032.113.291.291 0 0 0 .013.117.325.325 0 0 0 .057.105.324.324 0 0 0 .093.076.31.31 0 0 0 .235.02 6.845 6.845 0 0 0 1.311-.751c.398-.284.78-.59 1.146-.915a.208.208 0 0 0 .009-.275.207.207 0 0 0-.271-.042v-.013zm6.061-.195l.14 1.996a.086.086 0 0 1-.033.064.095.095 0 0 1-.034.015.073.073 0 0 1-.036 0l-1.83-.561a.077.077 0 0 1-.031-.022.08.08 0 0 1-.018-.073.096.096 0 0 1 .019-.034c.28-.256 1.274-1.122 1.658-1.458a.104.104 0 0 1 .051-.02.098.098 0 0 1 .053.009.1.1 0 0 1 .042.034.099.099 0 0 1 .019.05z" fill="#45567C"/><path d="M110.899 386.006a28.998 28.998 0 0 0 3.573 4.047c.157.131.324.249.5.354.167.092.346.162.531.207.379.116.779.145 1.171.085a2.71 2.71 0 0 0 1.829-1.287 1.418 1.418 0 0 0-.281-1.3 8.863 8.863 0 0 0-1.182-1.282 11.634 11.634 0 0 1-1.312-1.397 3.7 3.7 0 0 1-.487-.903 14.297 14.297 0 0 1-.305-.91 62.55 62.55 0 0 1-1.482-7.262.297.297 0 0 1 0-.073.312.312 0 0 1 .335-.281c5.434.47 10.891.787 16.343 1.068l2.042.091c.698.007 1.395.058 2.086.153a9.538 9.538 0 0 1 2.067.555c.69.271 1.314.687 1.83 1.221.259.291.465.626.609.989.134.335.238.659.354.988l.61 1.959 1.219 3.924 2.348 7.867.287.982.146.489c.045.14.1.276.165.408a5.982 5.982 0 0 0 1.14 1.514c.448.456.962.843 1.524 1.147a3.282 3.282 0 0 0 1.72.44 1.9 1.9 0 0 0 1.396-.8 1.403 1.403 0 0 0 .171-1.489 5.468 5.468 0 0 0-1.085-1.526c-.232-.25-.464-.482-.714-.787a1.477 1.477 0 0 1-.201-.299 1.193 1.193 0 0 1-.091-.372l-.074-.525a206.096 206.096 0 0 1-.786-8.19 77.252 77.252 0 0 1-.299-8.263c.127-1.403.419-2.786.872-4.119.421-1.325.921-2.606 1.439-3.882l1.567-3.784c.25-.61.494-1.257.683-1.885a5.989 5.989 0 0 0 .311-1.886c.043-2.679-.171-5.456.104-8.233a13.06 13.06 0 0 1 .994-4.144 5.003 5.003 0 0 1 1.36-1.83c.609-.452 1.116-.8 1.652-1.221a14.544 14.544 0 0 0 2.823-2.746 8.189 8.189 0 0 0 1.537-3.503c.215-1.29.2-2.608-.043-3.894a9.42 9.42 0 0 0-.213-.97 5.132 5.132 0 0 0-.299-.897 5.714 5.714 0 0 0-1.03-1.575 6.553 6.553 0 0 0-3.287-1.892 9.424 9.424 0 0 0-3.921-.103h-.079v.512a.14.14 0 0 1-.037.095.14.14 0 0 1-.091.046.144.144 0 0 1-.103-.035.128.128 0 0 1-.032-.045.13.13 0 0 1-.012-.055c-.048-.891 0-1.769 0-2.648 0-.464.043-.928.067-1.398a19.803 19.803 0 0 0-1.39 3.76.285.285 0 0 1-.056.134.285.285 0 0 1-.115.091l-.341.165a13.26 13.26 0 0 0-1.628.787 14.466 14.466 0 0 0-3.415 2.789.279.279 0 0 1-.177.092l-3.427.427.61.098c.896.14 1.799.287 2.683.512a.167.167 0 0 1 .122.159.168.168 0 0 1-.052.109.169.169 0 0 1-.113.044c-.256 0-.506-.037-.762-.055v.036a17.344 17.344 0 0 0-1.561 2.521v.036a15.885 15.885 0 0 0-.817 1.868c-.14.397-.268.793-.378 1.22-.055.202-.11.403-.159.611l-.073.305a3.509 3.509 0 0 1-.116.36 4.271 4.271 0 0 1-1.969 1.941 19.485 19.485 0 0 1-4.946 1.714c-1.689.385-3.39.653-5.098.885-3.415.446-6.848.69-10.275.855-2.573.114-5.146.181-7.72.201v-1.135c2.555 0 5.123 0 7.678-.098 3.408-.116 6.823-.317 10.208-.714a53.438 53.438 0 0 0 5.03-.799 18.35 18.35 0 0 0 4.757-1.569 3.626 3.626 0 0 0 1.677-1.55c.03-.085.048-.17.079-.25l.079-.317c.055-.214.116-.421.177-.61.122-.415.256-.83.409-1.221.223-.593.481-1.172.774-1.733a13.697 13.697 0 0 1-2.714-3.253.287.287 0 0 1 0-.281.292.292 0 0 1 .232-.158l5.092-.611.427-.067a14.732 14.732 0 0 1 3.488-2.825c.54-.313 1.102-.584 1.683-.812l.183-.092c.317-1.586 1.914-4.839 1.981-4.98a.326.326 0 0 1 .091-.108.293.293 0 0 1 .129-.056.289.289 0 0 1 .14.005.29.29 0 0 1 .122.068c.098.092 2.342 2.142 2.61 4.272.437.022.871.077 1.299.165a7.113 7.113 0 0 1 3.768 2.032 6.763 6.763 0 0 1 1.592 2.868c.103.337.186.679.25 1.025.28 1.408.307 2.855.079 4.272a9.304 9.304 0 0 1-1.695 3.955 14.828 14.828 0 0 1-3.049 2.96c-.536.421-1.146.836-1.634 1.22-.465.39-.833.883-1.073 1.441a11.95 11.95 0 0 0-.909 3.796c-.274 2.673-.073 5.376-.122 8.165a7.294 7.294 0 0 1-.36 2.148 27.318 27.318 0 0 1-.719 1.965l-1.58 3.79c-.518 1.257-1.012 2.521-1.426 3.802a17.084 17.084 0 0 0-.842 3.882 77.28 77.28 0 0 0 .281 8.123c.201 2.721.445 5.443.756 8.147l.067.488v.134c.025.041.054.08.085.116.177.226.433.476.665.733.524.53.949 1.15 1.256 1.83.164.385.229.805.189 1.221a2.295 2.295 0 0 1-.482 1.153 2.827 2.827 0 0 1-2.055 1.154 4.133 4.133 0 0 1-2.207-.549 7.52 7.52 0 0 1-1.738-1.306 6.833 6.833 0 0 1-1.299-1.758 3.804 3.804 0 0 1-.219-.543l-.147-.495-.286-.982-2.324-7.867-1.183-3.924-.042-.134c-.135 1.391-.263 2.789-.397 4.187l-.274 2.904-.128 1.392c.06.138.149.261.262.36.152.159.335.317.512.476.401.33.765.703 1.086 1.111.193.252.315.551.353.866.023.352-.093.698-.323.965a3.65 3.65 0 0 1-1.36.921 2.747 2.747 0 0 1-1.695.104 5.224 5.224 0 0 1-2.616-1.727 8.598 8.598 0 0 1-1.518-2.655 10.083 10.083 0 0 1-.573-2.972v-2.942c.052-2.73.115-5.456.189-8.177h-.33l-2.049-.116c-5.323-.318-10.64-.672-15.958-1.172.22 1.074.439 2.142.689 3.204.275 1.19.555 2.38.915 3.527.091.287.189.568.299.836.098.252.231.489.396.702.37.459.778.886 1.22 1.276.488.375.939.796 1.347 1.257.215.295.37.628.458.982.087.385.066.787-.061 1.16v.049c-.261.46-.616.86-1.043 1.172a3.194 3.194 0 0 1-1.451.61c-.52.077-1.051.04-1.555-.11a3.45 3.45 0 0 1-.738-.299 4.672 4.672 0 0 1-.61-.446 17.107 17.107 0 0 1-1.963-2.038 41.858 41.858 0 0 1-1.72-2.179 112.992 112.992 0 0 1-4.464-6.469v-1.22c.626.932 1.263 1.855 1.909 2.771.994 1.513 2.091 3.002 3.177 4.442zm29.88-47.51c.381-.689.809-1.352 1.28-1.983l-1.256-.141-2.116-.262a15.733 15.733 0 0 0 2.085 2.386h.007zm10.665-11.644c-.079.671-.153 1.349-.22 2.026-.042.495-.085.989-.122 1.489a10.953 10.953 0 0 1 2.226-.232c-.219-1.287-1.244-2.587-1.89-3.283h.006zm-18.385 59.27v2.899c.041.934.226 1.857.548 2.734a7.768 7.768 0 0 0 1.385 2.374 4.478 4.478 0 0 0 2.158 1.471c.385.099.791.08 1.165-.055a2.924 2.924 0 0 0 1.055-.671c.482-.427-.305-1.221-1.012-1.831-.183-.165-.366-.33-.555-.519a3.092 3.092 0 0 1-.275-.329.971.971 0 0 1-.195-.769v-.183l.037-.367.073-.726.293-2.911c.195-1.959.402-3.918.61-5.877v-.055a24.772 24.772 0 0 0-.324-.946 2.435 2.435 0 0 0-.463-.744 6.099 6.099 0 0 0-3.433-1.538 8.871 8.871 0 0 0-.988-.116c-.02 2.726-.049 5.446-.085 8.159h.006zm-42.332-61.186c.865-4.645 2.439-9.252 5.238-13.152a21.693 21.693 0 0 1 2.353-2.722c.44-.424.918-.809 1.427-1.147a4.558 4.558 0 0 1 1.787-.726 2.25 2.25 0 0 1 1.055.103c.344.121.649.332.884.611.4.545.627 1.198.653 1.873a6.507 6.507 0 0 1-.909 3.589 7.684 7.684 0 0 1-.524.775l-.507.696c-.323.463-.609.958-.908 1.464a16.735 16.735 0 0 0-.799 1.538c-.244.531-.5 1.05-.726 1.587a45.498 45.498 0 0 0-2.244 6.603 38.573 38.573 0 0 0-1.177 6.866 21.986 21.986 0 0 0 .464 6.896.298.298 0 0 1-.22.366.303.303 0 0 1-.372-.214 22.814 22.814 0 0 1-.555-7.097c.17-2.365.55-4.709 1.135-7.006a46.758 46.758 0 0 1 2.262-6.713c.226-.549.47-1.093.732-1.624.262-.53.536-1.055.823-1.58.286-.527.599-1.038.939-1.532l.531-.732c.166-.219.319-.447.457-.684a5.699 5.699 0 0 0 .793-3.137 2.53 2.53 0 0 0-.476-1.409 1.25 1.25 0 0 0-1.22-.428 3.664 3.664 0 0 0-1.439.611c-.469.31-.908.663-1.31 1.055a20.389 20.389 0 0 0-2.239 2.612c-2.689 3.76-4.195 8.264-5.06 12.816a56.916 56.916 0 0 0-.8 13.921c.073 1.159.183 2.325.36 3.466.079.564.19 1.122.335 1.672l.488 1.697a52.92 52.92 0 0 1 1.39 6.945c.318 2.337.482 4.705.61 7.049.152 2.324.468 4.635.945 6.914a78.51 78.51 0 0 0 1.129 4.772v1.593h-.244a74.501 74.501 0 0 1-1.598-6.218 49.182 49.182 0 0 1-.982-7.025c-.115-2.343-.28-4.668-.61-6.981a52.314 52.314 0 0 0-1.408-6.817l-.494-1.685a15.543 15.543 0 0 1-.36-1.775 40.604 40.604 0 0 1-.378-3.534 57.795 57.795 0 0 1 .769-14.152zm47.44-140.578c-1.994-.323-3.946-.805-5.885-1.269-1.939-.464-3.866-.97-5.805-1.422a.31.31 0 0 1-.229-.325.311.311 0 0 1 .278-.285 14.826 14.826 0 0 1 3.079.158 27.43 27.43 0 0 1 2.994.611c.988.244 1.962.527 2.921.848.966.32 1.913.695 2.836 1.123a.307.307 0 0 1 .171.329.306.306 0 0 1-.36.232zm-18.629.775c1.969.165 3.921.446 5.854.769.969.153 1.927.342 2.896.513l2.878.573c3.836.788 7.641 1.672 11.446 2.6a.31.31 0 0 1 .226.331.311.311 0 0 1-.287.279 38.54 38.54 0 0 1-5.909-.347c-1.957-.238-3.902-.574-5.829-.952a84.694 84.694 0 0 1-5.751-1.343 55.274 55.274 0 0 1-5.64-1.831.31.31 0 0 1-.195-.311.308.308 0 0 1 .311-.281zm1.372 8.526c1.829.415 3.775.61 5.683.878l5.781.66 5.775.61c1.927.183 3.854.403 5.78.549a.306.306 0 1 1 0 .61 43.132 43.132 0 0 1-5.884.177 81.697 81.697 0 0 1-5.854-.39 62.936 62.936 0 0 1-5.811-.842 25.289 25.289 0 0 1-5.683-1.666.313.313 0 0 1-.171-.348.318.318 0 0 1 .139-.205.298.298 0 0 1 .119-.042.298.298 0 0 1 .126.009z" fill="#45567C"/><path d="M56.462 136.964a13.616 13.616 0 0 1 1.975-3.308c.757-.995 1.519-1.977 2.306-2.941a173.691 173.691 0 0 1 9.896-11.15c1.732-1.782 3.488-3.552 5.397-5.175a71.005 71.005 0 0 1 2.927-2.332c.988-.75 1.976-1.477 2.86-2.3a19.104 19.104 0 0 0 2.39-2.735l2.287-2.935a224.828 224.828 0 0 1 4.683-5.791c1.598-1.898 3.232-3.778 4.933-5.59l1.3-1.343c.396-.379.78-.763 1.182-1.135 0-3.052 2.397-8.24 2.397-8.24 2.488-3.66 4.189-9.44 4.061-15.995-.128-6.554.652-10.887 2.226-14.677 1.573-3.79 3.012-5.492 6.159-9.313 3.146-3.82 5.488-5.639 9.695-5.901 4.208-.263 6.946 0 9.147.525 2.201.525 5.634 1.709 7.47 4.46 2.622 3.937 5.866 10.113 1.738 12.39.03.561.049 1.122 0 1.684-.067 1.532-.122 3.051-.086 4.571 0 .763.049 1.52.068 2.3.033.797-.018 1.595-.153 2.38a25.69 25.69 0 0 1-1.287 4.51 9.821 9.821 0 0 1-2.439 3.736c-.28 1.617-.299 3.014.537 5.541 1.329 3.979 4.409 11.125 4.012 16.178.342.306.683.61 1.013.934a46.553 46.553 0 0 1 5.25 6.103l4.592 6.493 9.256 12.981c2.823 3.961 5.598 7.934 8.391 11.943a304.11 304.11 0 0 1 2.043-11.278 96.54 96.54 0 0 1 3.225-12.376c1.287-4.04 2.44-8.123 3.659-12.206 1.22-4.083 2.305-8.178 3.427-12.272a.312.312 0 0 1 .384-.202l.342.104c.17-.91.398-1.81.683-2.692a17.947 17.947 0 0 1 1.829-3.96l2-3.98.506-1 .263-.525a.64.64 0 0 1 .506-.323.709.709 0 0 1 .5.164c.06.047.114.103.158.165l.086.134.164.269c.085.182.158.37.22.561a18.314 18.314 0 0 1 5.921-2.666.28.28 0 0 1 .335.164 2.025 2.025 0 0 1-.518 2.264 4.956 4.956 0 0 1-1.872 1.038c.421.082.822.244 1.183.476a1.536 1.536 0 0 1 .713 1.037c.013.1.013.2 0 .3.279.06.549.154.805.28.338.17.64.401.891.684a1.503 1.503 0 0 1 .384 1.14 2.021 2.021 0 0 1-.537 1.032 2.224 2.224 0 0 1-.177.165c.261.161.5.354.714.574.186.188.331.412.427.659.043.135.074.274.091.415a1.99 1.99 0 0 1-.061.427 2.328 2.328 0 0 1-.976 1.166 8.246 8.246 0 0 1-1.219.659.276.276 0 0 1-.22 0 1.585 1.585 0 0 1-.646-.543.832.832 0 0 1-.14-.397c-.513.458-1.031.91-1.568 1.336a19.37 19.37 0 0 1-1.067.781 6.89 6.89 0 0 1-1.03.61l-.47 2.009.287.085a.32.32 0 0 1 .213.311c-.317 5.017-.61 10.045-.805 15.068a278.005 278.005 0 0 0-.122 3.766l-.061 3.777c-.097 2.533-.274 5.047-.469 7.562-.409 5.022-.872 10.045-1.506 15.049-.323 2.502-.653 5.004-1.061 7.5a73.024 73.024 0 0 1-1.513 7.47c-.14.61-.396 1.221-.609 1.868-.214.646-.488 1.184-.763 1.769a22.51 22.51 0 0 1-1.914 3.394 9.693 9.693 0 0 1-2.872 2.843 5.651 5.651 0 0 1-4.129.684 7.66 7.66 0 0 1-1.006-.281l-.945-.39a13.618 13.618 0 0 1-1.701-1.05l-.793-.58-.738-.61a314.278 314.278 0 0 1-7.159-6.182c-3.774-3.332-7.464-6.762-11.147-10.198a259.092 259.092 0 0 1-5.427-5.187c-.732 2.166-1.409 4.272-1.402 6.469.006 2.197.158 4.565.219 6.859a100.84 100.84 0 0 1-.384 13.707c2.037 4.809 3.787 9.697 5.384 14.647a173.003 173.003 0 0 1 4.171 15.22 122.613 122.613 0 0 1 2.482 15.58l1.531 15.654 3.049 31.314c1.03 10.423 2.012 20.853 3.085 31.27a2.108 2.108 0 0 1 0 1.831c-.3.56-.761 1.017-1.323 1.312a9.357 9.357 0 0 1-3.287.946 9.631 9.631 0 0 1-.695.073l5.848 51.587 3.11 28.012.768 6.994.195 1.751.116.824c.067.263.116.537.201.8a12.258 12.258 0 0 0 1.488 3.051c1.22 1.916 2.805 3.778 3.659 6.103.371 1.09.823 2.151 1.354 3.173.17.318.353.641.542.952a25.047 25.047 0 0 0 1.476 1.929l2.659 1.648c.312.17.567.429.732.744a1.684 1.684 0 0 1-.391 1.996 2.06 2.06 0 0 1-.908.421 21.997 21.997 0 0 1-6.775.97 5.959 5.959 0 0 1-3.372-1.043 3.916 3.916 0 0 1-.665-.647l-.518-.659-1.061-1.306a92.355 92.355 0 0 0-4.189-4.651l-1.061 2.838a.305.305 0 0 1-.287.195h-1.89a.302.302 0 0 1-.263-.341 5.337 5.337 0 0 0-.103-1.624 10.473 10.473 0 0 0-.464-1.641 17.062 17.062 0 0 0-.689-1.575c-.262-.5-.555-1.019-.805-1.581a9.804 9.804 0 0 1-.774-3.533 16.211 16.211 0 0 1 .335-3.57l.348-1.721a9.8 9.8 0 0 1 .494-1.739 9.35 9.35 0 0 0 .707-3.302 24.248 24.248 0 0 0-1.128-6.792c-1.256-4.492-2.683-8.959-4.061-13.427-.409-1.318-.811-2.63-1.22-3.948l.653-1.129 1.439 4.809c1.347 4.485 2.738 8.953 3.97 13.487.604 2.03.975 4.123 1.103 6.237l7.927-.177-.5-4.272-3.225-27.829-6.098-53.576-20.245.25a3388.814 3388.814 0 0 1 6.317 25.064c1.122 4.553 2.232 9.106 3.275 13.677.39 1.782.689 3.143 1.128 4.882l-.903.787a211.304 211.304 0 0 1-1.323-5.437c-1.073-4.553-2.219-9.093-3.366-13.634-2-7.856-4.033-15.707-6.098-23.551l-20.409.403-.385 1.788-1.164 5.31a102.858 102.858 0 0 0-1.787 10.68c-.61 7.176-.555 14.451-.866 21.713-.079 1.831-.158 3.662-.354 5.456-.195 1.794-.487 3.662-.786 5.426a700.38 700.38 0 0 1-1.909 10.716l-2.037 10.698-2.128 10.625c.49 3.507.455 7.068-.103 10.564-.47 3.497-1 6.982-1.549 10.46a.3.3 0 0 1-.268.257l-1.83.207a.302.302 0 0 1-.219-.061.299.299 0 0 1-.116-.195l-.775-4.882a2.502 2.502 0 0 0-1.975 1.275c-.19.385-.318.922-.488 1.398a13.23 13.23 0 0 1-.555 1.452 6.429 6.429 0 0 1-1.909 2.545 5.433 5.433 0 0 1-3.049 1.001c-1.03.064-2.063.052-3.091-.037a26.695 26.695 0 0 1-1.537-.165 2.064 2.064 0 0 1-.848-.238 1.75 1.75 0 0 1-.67-.646 1.839 1.839 0 0 1-.037-1.831c.177-.293.323-.446.476-.659l.463-.611 1.83-2.386c1.64-4.003 3.231-8.037 4.677-12.114.353-1.025.7-2.05 1.012-3.051.146-.519.305-1.032.42-1.55a5.68 5.68 0 0 0 .14-.757c.037-.259.058-.52.062-.781.073-2.161.091-4.346.116-6.512.073-8.703.054-17.403-.055-26.102 0-1.684-.061-3.362-.098-5.047l.561-4.272.378-.25c.055 2.716.11 6.841.128 9.557.073 8.711.051 17.418-.067 26.12-.036 2.179-.06 4.351-.152 6.542 0 .232 0 .489-.055.745h8.555a.375.375 0 0 1 0-.067l3.72-21.446c.61-3.57 1.256-7.14 1.829-10.716.287-1.788.61-3.57.75-5.346.141-1.776.269-3.595.354-5.401.165-3.613.25-7.238.366-10.869.116-3.631.244-7.262.646-10.9a96.36 96.36 0 0 1 1.952-10.753l1.286-5.291.61-2.642.201-.891v-.08l-19.806.189a95.959 95.959 0 0 0-.317 5.151 289.003 289.003 0 0 0-.189 6.512 610.122 610.122 0 0 0-.091 12.504l-1.08 1.422v-.878c-.028-4.358-.016-8.713.037-13.066.03-2.179.073-4.358.153-6.543.036-.964.079-1.934.134-2.898h-.092l-3.256.061a8.594 8.594 0 0 1-1.762-.11 2.34 2.34 0 0 1-1.019-.501 2.287 2.287 0 0 1-.58-.97 6.568 6.568 0 0 1-.25-1.782v-1.672c.044-1.129.153-2.203.245-3.29l.61-6.493c.39-4.327.737-8.648.957-12.975.22-4.326.33-8.666.22-12.98l-.464-13.03c-.274-8.696-.476-17.399-.378-26.107.067-4.358.189-8.721.61-13.091.073-1.086.244-2.185.378-3.277.055-.543.189-1.092.287-1.642.097-.549.2-1.104.335-1.623.494-2.106.963-4.217 1.378-6.341.213-1.056.409-2.124.677-3.222.235-.86.52-1.706.854-2.533l-1.598-6.188c-3.96-2.917-7.938-5.808-11.934-8.672a246.137 246.137 0 0 0-6.097-4.272c-2.074-1.404-4.043-2.893-6.007-4.425-3.903-3.051-7.702-6.322-10.879-10.271a9.856 9.856 0 0 1-1.798-3.46 6.576 6.576 0 0 1 .268-4.003zM162.54 374.155c-.61 0-1.061.702-1.061 1.568 0 .867.475 1.575 1.061 1.575.585 0 1.067-.702 1.067-1.575s-.476-1.568-1.067-1.568zm-60.022-.507c-.61 0-1.067.745-1.067 1.672 0 .928.482 1.673 1.067 1.673.586 0 1.067-.751 1.067-1.673 0-.921-.481-1.66-1.091-1.66l.024-.012zm17.806-279.855l-.165.61-.036.134c-.043.14-.079.28-.11.415-.03.134-.03.104-.043.159-.036.177-.079.348-.109.525-.028.152-.075.3-.141.44l14.91 22.091c-.11-.543-.214-1.068-.317-1.538a168.161 168.161 0 0 1-1.037-4.919.307.307 0 0 1-.067-.085c-1.043-2.24-2.25-4.418-3.458-6.591a239.17 239.17 0 0 0-3.744-6.45 209.044 209.044 0 0 0-3.939-6.33c-.354-.542-.707-1.08-1.067-1.617v.293c0 .098 0 .135-.031.202a6.68 6.68 0 0 1-.091.55 15.498 15.498 0 0 1-.171.812c0 .041 0 .078-.03.115-.043.177-.092.354-.134.525 0 .06-.037.115-.049.177l-.171.482zm13.513 10.802c0 .762-.055 1.525-.067 2.288v4.272c.097.537.299 1.562.695 3.405l2.079-23.312-.158-.11a29.308 29.308 0 0 0-3.049-1.746l.165 3.699c.14 3.051.286 6.103.341 9.203.012.763.024 1.507-.006 2.313v-.012zm5.397-36.007a24.392 24.392 0 0 0 1.219-4.333c.268-1.434.086-2.941.079-4.504 0-1.306.031-2.612.086-3.912a2.312 2.312 0 0 0-1.75.483 2.743 2.743 0 0 0-.61 2.105 22.55 22.55 0 0 0 .915 4.925.267.267 0 0 1 0 .098c-.06.221-.183.42-.354.573a1.613 1.613 0 0 1-.518.305c-.349.12-.718.17-1.086.147a.2.2 0 0 1-.184-.267.2.2 0 0 1 .178-.136 2.44 2.44 0 0 0 .909-.183c.127-.058.243-.138.341-.238a.747.747 0 0 0 .153-.25 48.732 48.732 0 0 1-.568-2.441 20.725 20.725 0 0 1-.396-2.551 5.3 5.3 0 0 1 .061-1.35c.078-.483.289-.935.61-1.305.339-.37.781-.631 1.268-.75a4.469 4.469 0 0 1 1.049-.165 17.173 17.173 0 0 0-.354-4.065h-.774c-2.278-.133-4.564 0-6.811.397-3.934.653-5.635.128-5.635.128l-.652-2.228s-.659 5.377-1.049 10.094c-.39 4.718-1.695 14.5-3.409 19.017-.744 1.953-2.098 3.661-1.183 8.263.217 1.05.313 2.12.287 3.192.512.756 1.016 1.515 1.512 2.276 1.354 2.1 2.677 4.21 3.958 6.353a243.501 243.501 0 0 1 3.756 6.463c.982 1.77 1.951 3.539 2.854 5.358 0-1.068-.043-2.136-.043-3.204 0-.769 0-1.544.043-2.307.042-.763 0-1.519 0-2.282-.104-3.052-.269-6.103-.415-9.154-.146-3.052-.323-6.103-.427-9.197-.043-1.526-.134-3.052-.128-4.614-.01-.783.029-1.566.116-2.343.055-.82.262-1.624.61-2.368.11-.183.225-.373.36-.556.152-.173.324-.329.512-.463.184-.138.39-.243.61-.312l.329-.097.262-.061a4.737 4.737 0 0 0 1.872-.928 8.66 8.66 0 0 0 2.397-3.625v.012zm52.441 15.916a6.233 6.233 0 0 0 1.086-.61c.36-.232.707-.476 1.049-.739a32.008 32.008 0 0 0 1.994-1.629c.138-.12.282-.232.433-.336a4.53 4.53 0 0 1 .573-.42.121.121 0 0 1 .193.04.131.131 0 0 1 0 .096.134.134 0 0 1-.029.04 2.353 2.353 0 0 0-.78.97.425.425 0 0 0 .091.428.88.88 0 0 0 .318.226 6.767 6.767 0 0 0 1.018-.55c.33-.187.59-.48.738-.83a.934.934 0 0 0-.317-.915 3.425 3.425 0 0 0-.75-.61l-.165.116c-.155.13-.333.23-.524.293a.764.764 0 0 1-.708-.202 1.899 1.899 0 0 1-.463-1.074 1.64 1.64 0 0 1 .353-1.105.246.246 0 0 1 .336-.048.241.241 0 0 1 .094.157.24.24 0 0 1-.045.178c-.172.223-.259.5-.244.781.036.275.151.533.329.745a.238.238 0 0 0 .232.055c.061 0 .207-.128.341-.214a3.67 3.67 0 0 0 .714-.61 1.46 1.46 0 0 0 .384-.732.896.896 0 0 0-.059-.38.894.894 0 0 0-.21-.322 2.654 2.654 0 0 0-1.408-.757 2.966 2.966 0 0 1-.165.336c-.215.323-.467.62-.75.885-.152.134-.25.244-.445.396a.754.754 0 0 1-.768 0 1.388 1.388 0 0 1-.763-1.007 1.766 1.766 0 0 1 .391-1.171.214.214 0 0 1 .381.168.211.211 0 0 1-.034.076 1.276 1.276 0 0 0-.292.866.916.916 0 0 0 .542.647.277.277 0 0 0 .281 0l.366-.342a4.25 4.25 0 0 0 .646-.805c.168-.257.249-.56.232-.867a1.008 1.008 0 0 0-.506-.683 3.701 3.701 0 0 0-1.939-.464h-.074a6.634 6.634 0 0 0-.786.433 3.363 3.363 0 0 0-1.317 1.434v.037a.177.177 0 0 1-.226.104.174.174 0 0 1-.098-.092.173.173 0 0 1-.006-.134 3.596 3.596 0 0 1 1.427-1.697 8.94 8.94 0 0 1 1.921-.988 4.614 4.614 0 0 0 1.72-.995c.217-.21.37-.48.439-.775a1.53 1.53 0 0 0 0-.61 17.326 17.326 0 0 0-5.671 2.66c.015.19.015.38 0 .568a9.912 9.912 0 0 1-.36 2.276c-.086.367-.183.727-.244 1.074a2.487 2.487 0 0 0-.049.495.701.701 0 0 0 0 .183 7.57 7.57 0 0 1 1.049.458c.347.188.669.42.957.69.642.55 1.08 1.3 1.244 2.13a.2.2 0 0 1-.14.225.194.194 0 0 1-.142-.021.2.2 0 0 1-.09-.113 3.559 3.559 0 0 0-1.103-1.752 4.27 4.27 0 0 0-.878-.61 8.138 8.138 0 0 0-1.019-.397l-.164-.073a.473.473 0 0 1-.098-.08.476.476 0 0 1-.055-.085l-.036-.097a1.07 1.07 0 0 1-.074-.367 3.285 3.285 0 0 1 .049-.61c.061-.39.153-.757.232-1.117a9.454 9.454 0 0 0 .305-2.136 3.503 3.503 0 0 0-.134-1.013 3.85 3.85 0 0 0-.189-.451l-.135-.202-.061-.104-.207.422-.482 1.013-1.939 4.04a17.433 17.433 0 0 0-1.689 3.82c-.264.886-.468 1.79-.61 2.704l6.22 1.953.61-2.088a.3.3 0 0 1 .165-.201l-.013.012zm-1.036 13.707c.252-3.54.526-7.077.823-10.613l-7.982-2.44a975.274 975.274 0 0 1-2.878 10.673l10.037 2.38zm-44.515 35.024a47.173 47.173 0 0 0 1.83-6.548c.425-2.214.662-4.46.707-6.713a24.773 24.773 0 0 0-.183-3.357 17.207 17.207 0 0 0-.805-3.247c-.762-2.111-1.799-4.223-2.439-6.456a.31.31 0 0 1 .023-.226.311.311 0 0 1 .172-.147.29.29 0 0 1 .232.009.296.296 0 0 1 .152.174 37.118 37.118 0 0 0 1.287 3.162c.475 1.037.994 2.075 1.415 3.173.43 1.1.749 2.241.951 3.405a24.5 24.5 0 0 1 .293 3.516 41.048 41.048 0 0 1-.61 6.963c-.189 1.153-.464 2.289-.762 3.418-.226.817-.482 1.623-.738 2.441 1.939 1.788 3.902 3.551 5.854 5.327 3.725 3.369 7.512 6.677 11.293 9.991a248.933 248.933 0 0 0 5.714 4.882c.481.403.963.805 1.451 1.22l.726.611.731.525c.481.343.987.651 1.513.921l.792.33c.267.087.537.16.811.219a4.315 4.315 0 0 0 3.122-.525 8.265 8.265 0 0 0 2.44-2.441c.7-1.001 1.312-2.06 1.829-3.167.262-.555.524-1.129.744-1.69.219-.562.421-1.111.555-1.721a70.567 70.567 0 0 0 1.512-7.324c.421-2.471.756-4.961 1.086-7.445.609-4.986 1.219-9.978 1.658-14.983.226-2.502.433-5.01.561-7.506l.11-3.771c.055-1.258.122-2.521.201-3.778.079-1.257.171-2.399.25-3.6l-10.147-2.442-.201.739c-1.134 4.101-2.281 8.196-3.537 12.266a94.78 94.78 0 0 0-3.085 12.31 282.008 282.008 0 0 0-2.141 12.547.524.524 0 0 1-.402.447.527.527 0 0 1-.561-.215c-3.049-4.321-6.165-8.623-9.208-12.963l-9.147-12.992-4.579-6.5a50.213 50.213 0 0 0-5.098-5.968 37.145 37.145 0 0 0-5.342-4.437l-2.219 24.911a213.198 213.198 0 0 1 3.238 21.641c.39 4.473-.891 10.668-1.83 15.19-.219 1.049-.414 2.014-.61 2.868 3.049-.165 6.056-.409 9.086-.61.092-2.856.061-5.725 0-8.593-.061-2.301-.195-4.565-.201-6.92-.006-2.356.781-4.779 1.524-6.933l-.018.012zm-50.082 41.359a38.853 38.853 0 0 1 1.592-2.887 125.45 125.45 0 0 1 2.677-4.272 2.038 2.038 0 0 1-.086-.47c-.003-.03 0-.06.009-.089a.213.213 0 0 1 .046-.076.248.248 0 0 1 .076-.051.243.243 0 0 1 .178 0 .26.26 0 0 1 .076.051c.256.244.498.503.725.775.21.251.455.471.726.653.272.182.57.322.884.415.199.065.403.112.61.141a9.975 9.975 0 0 0-.451-1.514 3.298 3.298 0 0 0-1.104-1.525 1.546 1.546 0 0 0-1.671.054 5.182 5.182 0 0 0-1.463 1.288.31.31 0 0 1-.14.101.313.313 0 0 1-.172.009 2.153 2.153 0 0 0-.61-.043l-.036.061-4.342 4.724 1.476 5.041c.275-.8.616-1.599 1-2.386zm2.44-8.056c.427-.526.945-.97 1.53-1.312a2.745 2.745 0 0 1 1.122-.348 1.89 1.89 0 0 1 .756.116l1.012-1.544a24.037 24.037 0 0 0 1.58-2.734c-.006-4.08-.257-8.156-.75-12.206a31.92 31.92 0 0 0-1.275-5.95c-.311-.928-.756-1.898-1.116-2.856-.36-.958-.744-1.922-1.097-2.893-1.433-3.869-2.726-7.787-3.818-11.772a102.95 102.95 0 0 1-1.012-4.04l-.47.445a61.35 61.35 0 0 1-7.738 6.164c-1.341.891-2.628 1.892-3.902 2.905a130.697 130.697 0 0 0-3.763 3.125 236.98 236.98 0 0 0-6.787 6.066l5.958 6.377 6.397 6.896 12.507 13.573a3.44 3.44 0 0 1 .871.012l-.006-.024zm-1.086-41.762c1.043 3.961 2.287 7.873 3.659 11.736.341.97.701 1.929 1.067 2.887s.762 1.879 1.097 2.905a32.04 32.04 0 0 1 1.22 6.102c.287 2.393.445 4.797.537 7.202.975.14 1.957.256 2.939.366 0-.562.079-5.914-.677-18.461-.799-13.145-6.647-21.677-6.708-21.756v-.049a70.4 70.4 0 0 1-4.226 4.418 93.34 93.34 0 0 0 1.098 4.675l-.006-.025zm7.635 31.509c.04 1.424.063 2.848.067 4.272 3.238.452 6.506.696 9.756.855 3.25.158 6.708.177 10.086.134 3.378-.043 6.708-.214 10.086-.366l5.043-.232c.841-.037 1.683-.098 2.525-.153l1.256-.085c.219 0 .439 0 .652-.049.134-1.459.226-2.911.281-4.37-3.226.36-6.47.611-9.708.836-3.372.22-6.751.336-10.123.379-3.372.042-6.762 0-10.134-.196a95.584 95.584 0 0 1-9.787-1.025zm59.759 129.379c.06-.135.105-.276.134-.421a1.82 1.82 0 0 0-.037-.641l-.03-.103c-1.049-10.43-2.201-20.854-3.299-31.277l-3.323-31.271-1.641-15.623a127.78 127.78 0 0 0-2.506-15.446c-1.134-5.096-2.531-10.131-4.122-15.111-1.592-4.979-3.366-9.886-5.391-14.646-.225 0-.445.042-.664.061l-1.257.134-2.518.25a229.8 229.8 0 0 1-5.043.47c-3.366.25-6.744.36-10.122.415-3.379.055-6.763 0-10.141-.201l-1.482-.104c-.86 1.013-5.805 7.116-7.506 15.129a160.551 160.551 0 0 0-2.97 30.782c.14 8.862-.14 30.447-.403 35.335-.274 5.005-1.219 22.99-1.219 22.99l-.47 19.974 64.01-.696zm-71.724-94.91c-.134.537-.22 1.049-.323 1.568-.103.519-.213 1.038-.268 1.575-.134 1.062-.299 2.117-.372 3.198-.39 4.271-.512 8.629-.61 12.962-.091 8.672.11 17.356.384 26.04l.409 13.042c.091 4.37-.043 8.739-.28 13.091-.238 4.351-.61 8.69-1.031 13.023l-.61 6.493c-.097 1.074-.207 2.161-.256 3.21v1.465l10.08-.098.475-20.005s.952-17.991 1.22-23.001c.262-4.882.543-26.437.402-35.292a161.406 161.406 0 0 1 2.982-30.911c1.592-7.494 5.97-13.353 7.354-15.056a96.307 96.307 0 0 1-7.61-.915 21.064 21.064 0 0 1-1.366 2.765l-.933 1.623c.416.427.742.933.958 1.489.261.665.465 1.351.609 2.051a.281.281 0 0 1-.116.297.295.295 0 0 1-.103.044h-.037a3.119 3.119 0 0 1-1.262 0 3.253 3.253 0 0 1-1.177-.457 3.694 3.694 0 0 1-.61-.513 122.673 122.673 0 0 0-2.22 3.875 79.355 79.355 0 0 0-1.475 2.856c-.456.964-.863 1.95-1.22 2.954a24.723 24.723 0 0 0-.957 3.021c-.238 1.013-.408 2.093-.61 3.167a238.308 238.308 0 0 1-1.427 6.439zm.074-19.309l4.073-4.437-5.738-5.963-4.994 5.365c2.223 1.672 4.443 3.35 6.659 5.035zm-35.893-30.777a8.789 8.789 0 0 0 1.604 3.094c3.05 3.796 6.812 7.055 10.66 10.125a139.83 139.83 0 0 0 5.92 4.449c2.013 1.434 4.05 2.868 6.043 4.339 1.513 1.111 3.013 2.24 4.513 3.369l5.067-5.438-6.708-6.945-6.53-6.762-6.556-6.713a.702.702 0 0 1 .043-.983c2.44-2.197 4.94-4.339 7.476-6.426a126.53 126.53 0 0 1 3.854-3.082c1.305-1.001 2.634-1.983 4.037-2.88a60.92 60.92 0 0 0 7.744-5.92 70.905 70.905 0 0 0 6.86-6.969.308.308 0 0 1 .09-.075.304.304 0 0 1 .331.032.302.302 0 0 1 .1.327.303.303 0 0 1-.057.106 64.31 64.31 0 0 1-.854 1.013.338.338 0 0 1 .165.11c.061.086 6.006 8.752 6.817 22.074.793 13.097.677 18.382.677 18.559 2.098.213 4.207.366 6.317.476 3.354.164 6.708.201 10.086.14s6.708-.22 10.086-.403h.073c.171-.897.378-1.91.61-3.051.933-4.48 2.201-10.625 1.829-15.013-.432-4.986-1.573-12.944-2.622-18.54L119.343 96.6c-1.305 1.404-4.823 1.77-8.537 1.77-4.451 0-9.695-4.455-11.659-6.292a1.831 1.831 0 0 1-.494-1.001c-.25.256-.5.513-.756.763l-1.268 1.342c-1.665 1.831-3.257 3.717-4.824 5.627a282.082 282.082 0 0 0-4.628 5.804l-2.269 2.941c-.371.489-.75.989-1.158 1.477-.414.485-.856.946-1.323 1.38-.927.878-1.933 1.623-2.91 2.38-.975.756-1.944 1.507-2.877 2.313-1.83 1.592-3.592 3.35-5.305 5.132-3.41 3.576-6.708 7.287-9.757 11.131-.775.959-1.525 1.941-2.262 2.924a12.625 12.625 0 0 0-1.83 3.051 5.497 5.497 0 0 0-.238 3.326z" fill="#45567C"/><path d="M186.981 92.535c.441.012.859.196 1.165.513a1.641 1.641 0 0 1-1.165 2.777 1.626 1.626 0 0 1-1.158-.452 1.652 1.652 0 0 1-.52-1.172 1.647 1.647 0 0 1 .477-1.19 1.68 1.68 0 0 1 1.201-.476zm0 2.661a.95.95 0 0 0 .952-.952.955.955 0 0 0-.952-.952.974.974 0 0 0-.914.922.952.952 0 0 0 .253.682.94.94 0 0 0 .661.3zM90.048 167.27a1.28 1.28 0 0 1-.246-2.539 1.277 1.277 0 0 1 1.313.55 1.281 1.281 0 0 1-1.067 1.989zm0-1.947a.676.676 0 0 0-.62.415.668.668 0 0 0 .145.731.67.67 0 0 0 1.145-.475.662.662 0 0 0-.67-.683v.012zm24.905-33.828a8.78 8.78 0 0 1 3.537.086c1.143.141 2.294.212 3.445.213a22.346 22.346 0 0 0 6.854-.97.296.296 0 0 1 .348.122.31.31 0 0 1-.092.427 12.376 12.376 0 0 1-3.408 1.459c-1.196.325-2.422.53-3.659.61a21.042 21.042 0 0 1-3.714-.085c-1.219-.122-2.488-.33-3.494-1.276a.34.34 0 0 1-.109-.16.343.343 0 0 1 .09-.361.348.348 0 0 1 .172-.089l.03.024zm19.25-75.472h-.067a1.073 1.073 0 0 1-.683-.074 6.619 6.619 0 0 0-.689-.146c-.473-.08-.952-.128-1.433-.14a9.14 9.14 0 0 0-2.854.299.224.224 0 0 1-.174-.007.225.225 0 0 1-.132-.216.234.234 0 0 1 .02-.086.234.234 0 0 1 .128-.119 7.81 7.81 0 0 1 3.018-.665c.52-.017 1.04.005 1.555.067.263.037.519.074.781.135a1 1 0 0 1 .732.402.386.386 0 0 1 .061.23.363.363 0 0 1-.263.32zm1.069 12.382a.283.283 0 0 1-.073-.226.27.27 0 0 1 .033-.096.247.247 0 0 1 .068-.075.252.252 0 0 1 .192-.048c.415.08.835.138 1.256.17.384 0 .781 0 1.256-.048a.23.23 0 0 1 .189.079.251.251 0 0 1 .071.174.252.252 0 0 1-.071.174c-.41.353-.941.534-1.481.506a2.276 2.276 0 0 1-1.44-.61zm-3.379-10.68c.403 0 .732.61.732 1.3 0 .69-.329 1.3-.732 1.3-.402 0-.725-.61-.725-1.3 0-.69.323-1.3.725-1.3zm7.927.226c.335 0 .61.482.61 1.074 0 .592-.269 1.074-.61 1.074-.342 0-.61-.482-.61-1.074 0-.592.281-1.074.61-1.074z" fill="#45567C"/></g><defs><clipPath id="a"><path fill="#fff" d="M0 0h256v424H0z"/></clipPath></defs></svg>